<svg width="964" height="775" viewBox="0 0 964 775" fill="none" xmlns="http://www.w3.org/2000/svg">
<g id="undraw_project_completed" clip-path="url(#clip0)">
<path id="Vector" d="M963.51 719.526H0V721.767H963.51V719.526Z" fill="#3F3D56"/>
<path id="Vector_2" d="M649.659 335.81C649.659 335.81 606.442 369.767 628.05 377.484C649.659 385.202 663.55 349.702 663.55 349.702L649.659 335.81Z" fill="#FFB8B8"/>
<path id="Vector_3" d="M651.203 323.463L641.942 338.897C641.942 338.897 657.376 338.897 660.463 362.049L672.811 346.615L651.203 323.463Z" fill="#CFCCE0"/>
<path id="Vector_4" d="M856.484 675.375L858.028 721.679L839.506 732.483L831.789 727.853L833.332 675.375H856.484Z" fill="#FFB8B8"/>
<path id="Vector_5" d="M746.898 663.027L749.985 712.418L706.768 730.94L709.855 704.701C709.855 704.701 722.202 684.636 719.115 663.027H746.898Z" fill="#FFB8B8"/>
<path id="Vector_6" d="M813.267 291.05C813.267 291.05 837.963 355.876 842.593 396.006C847.224 436.136 854.941 542.636 854.941 542.636L870.376 680.005L827.159 686.179L808.637 547.266L766.963 409.897L757.702 547.266L749.985 672.288L709.855 673.831L706.768 544.179L689.789 379.028L699.05 300.311L813.267 291.05Z" fill="#2F2E41"/>
<path id="Vector_7" d="M836.419 724.766C836.419 724.766 838.951 698.843 857.75 713.348L861.115 710.875L876.55 744.831C876.55 744.831 895.071 771.07 862.658 774.157C830.245 777.244 833.332 744.831 833.332 744.831L830.245 730.94L831.789 721.843L836.419 724.766Z" fill="#2F2E41"/>
<path id="Vector_8" d="M746.898 693.896C750.697 696.069 753.846 699.218 756.017 703.018C758.188 706.817 759.303 711.129 759.246 715.505C759.246 730.94 757.702 732.483 757.702 732.483L734.55 738.657C734.55 738.657 719.115 737.114 709.855 746.375C700.594 755.635 654.289 761.809 654.289 749.462C654.289 737.114 692.876 717.049 692.876 717.049C692.876 717.049 704.336 697.696 712.497 699.655C720.659 701.614 723.746 704.701 723.746 706.244C723.746 707.788 719.115 718.592 719.115 718.592C719.115 718.592 745.354 712.418 746.898 693.896Z" fill="#2F2E41"/>
<path id="Vector_9" d="M743.811 101.202C765.122 101.202 782.398 83.9265 782.398 62.6155C782.398 41.3046 765.122 24.0287 743.811 24.0287C722.5 24.0287 705.224 41.3046 705.224 62.6155C705.224 83.9265 722.5 101.202 743.811 101.202Z" fill="#FFB8B8"/>
<path id="Vector_10" d="M772.365 72.6481L789.343 111.235L743.039 177.604C743.039 177.604 739.952 105.061 730.691 92.7133C721.431 80.3655 772.365 72.6481 772.365 72.6481Z" fill="#FFB8B8"/>
<path id="Vector_11" d="M750.756 152.909L758.474 132.844L764.647 134.387L772.365 128.213L783.169 94.257L798.604 105.061L818.669 307.256L693.648 310.343L710.626 169.887L726.061 129.757L737.202 115.028L744.582 137.474L750.756 152.909Z" fill="#CFCCE0"/>
<path id="Vector_12" d="M786.256 239.343L790.979 99.7237C790.979 99.7237 800.148 100.431 803.235 105.061C806.322 109.692 857.256 118.952 857.256 118.952L847.995 262.495C847.995 262.495 886.582 376.713 872.691 382.886C858.8 389.06 834.104 387.517 834.104 387.517L786.256 239.343Z" fill="#575A89"/>
<path id="Vector_13" d="M711.398 221.593L727.772 127.495L691.333 152.137L700.594 220.05L692.876 266.354C692.876 266.354 663.55 394.462 672.811 399.093C682.072 403.723 692.876 399.093 692.876 399.093L711.398 269.441V221.593Z" fill="#575A89"/>
<path id="Vector_14" d="M702.137 149.05L691.333 152.137L686.702 213.876L678.985 267.898L641.942 334.267C641.942 334.267 660.463 321.919 668.181 357.419L708.976 286.393L702.137 149.05Z" fill="#575A89"/>
<path id="Vector_15" d="M822.528 323.463C822.528 323.463 779.311 357.419 800.919 365.136C822.528 372.854 836.419 337.354 836.419 337.354L822.528 323.463Z" fill="#FFB8B8"/>
<path id="Vector_16" d="M848.767 340.441L834.876 357.419L816.354 325.006L824.071 311.115L848.767 340.441Z" fill="#CFCCE0"/>
<path id="Vector_17" d="M845.68 124.354L858.028 118.181C858.028 118.181 867.289 130.528 868.832 141.333C870.376 152.137 878.093 166.028 878.093 173.746C878.093 181.463 899.702 254.006 899.702 254.006L850.311 354.332C850.311 354.332 839.506 317.289 816.354 314.202L854.941 260.18L833.332 221.593L845.68 124.354Z" fill="#575A89"/>
<path id="Vector_18" d="M776.114 25.8505L783.39 22.9375C783.39 22.9375 768.176 6.18733 747.008 7.64393L752.962 1.08946C752.962 1.08946 738.409 -4.73662 725.179 10.5569C718.224 18.5964 710.178 28.0464 705.161 38.6917H697.369L700.621 45.8529L689.238 53.0142L700.922 51.7279C700.225 55.6495 700.119 59.653 700.605 63.6062C701.106 67.5605 703.124 71.1654 706.233 73.6602C706.233 73.6602 715.257 54.9811 715.257 52.068V59.3507C715.257 59.3507 722.533 52.7963 722.533 48.4268L726.502 53.5246L728.487 45.5136L752.962 53.5246L748.993 46.9702L764.207 49.155L758.254 41.144C758.254 41.144 775.452 50.6115 776.114 58.6225C776.775 66.6333 781.81 74.2241 781.81 74.2241C781.81 74.2241 795.297 36.7745 776.114 25.8505Z" fill="#2F2E41"/>
<path id="Vector_19" d="M775.452 61.8438C777.839 61.8438 779.774 59.4252 779.774 56.4417C779.774 53.4581 777.839 51.0395 775.452 51.0395C773.065 51.0395 771.13 53.4581 771.13 56.4417C771.13 59.4252 773.065 61.8438 775.452 61.8438Z" fill="#FFB8B8"/>
<path id="Vector_20" d="M178.601 318.118H45.361V280.782H114.91L178.601 318.118Z" fill="#00BFA6"/>
<path id="Vector_21" d="M44.9951 312.994V422.075H477.66V312.994H44.9951ZM213.742 403.773H73.1806V388.399H213.742V403.773ZM449.475 375.221H73.1806V359.847H449.475V375.221ZM449.475 346.67H73.1806V331.296H449.475V346.67Z" fill="#3F3D56"/>
<path id="Vector_22" d="M178.601 141.685H45.361V104.348H114.91L178.601 141.685Z" fill="#00BFA6"/>
<path id="Vector_23" d="M44.9951 138.756V247.838H477.66V138.756H44.9951ZM213.742 229.535H73.1806V214.162H213.742V229.535ZM295.004 200.984H73.1806V185.61H295.004L295.004 200.984ZM449.475 172.432H73.1806V157.059H449.475V172.432Z" fill="#3F3D56"/>
<path id="Vector_24" d="M178.601 490.891H45.361V453.555H114.91L178.601 490.891Z" fill="#00BFA6"/>
<path id="Vector_25" d="M44.9951 483.57V592.652H477.66V483.57H44.9951ZM295.004 574.35H73.1806V558.976H295.004V574.35ZM295.004 545.798H73.1806V530.424H295.004V545.798ZM449.475 517.247H73.1806V501.873H449.475V517.247Z" fill="#3F3D56"/>
<g id="boxes">
<path id="Vector 1" d="M600 194V222H540V164H580" stroke="#3F3D56" stroke-width="2.5"/>
<path id="Vector 2" d="M600 367V395H540V337H580" stroke="#3F3D56" stroke-width="2.5"/>
<path id="Vector 3" d="M600 540V568H540V510H580" stroke="#3F3D56" stroke-width="2.5"/>
</g>
<g id="checkmarks">
<path id="Vector 4" d="M559 190L570 202L613 160" stroke="#00BFA6" stroke-width="5"/>
<path id="Vector 5" d="M559 367L570 379L613 337" stroke="#00BFA6" stroke-width="5"/>
<path id="Vector 6" d="M559 540L570 552L613 510" stroke="#00BFA6" stroke-width="5"/>
</g>
</g>
<defs>
<clipPath id="clip0">
<rect width="963.51" height="774.364" fill="white"/>
</clipPath>
</defs>
</svg>
